<?xml version="1.0" standalone="no"?>
<!DOCTYPE svg PUBLIC "-//W3C//DTD SVG 20010904//EN"
 "http://www.w3.org/TR/2001/REC-SVG-20010904/DTD/svg10.dtd">
<svg version="1.0" xmlns="http://www.w3.org/2000/svg"
 width="512.000000pt" height="512.000000pt" viewBox="0 0 512.000000 512.000000"
 preserveAspectRatio="xMidYMid meet">
<metadata>
Created by potrace 1.11, written by Peter Selinger 2001-2013
</metadata>
<g transform="translate(0.000000,512.000000) scale(0.100000,-0.100000)"
fill="#000000" stroke="none">
<path d="M1460 2535 l0 -1785 340 0 340 0 0 478 0 478 -335 414 c-296 364
-334 415 -322 429 8 9 159 195 335 413 l322 397 0 481 0 480 -340 0 -340 0 0
-1785z"/>
<path d="M2673 3613 c-318 -390 -646 -791 -729 -893 l-151 -185 121 -149 c67
-82 394 -482 727 -890 l605 -741 332 -3 c183 -1 332 0 332 3 0 2 -324 401
-720 887 -396 485 -720 884 -720 887 0 3 326 406 725 894 399 489 725 890 725
893 0 2 -151 4 -335 4 l-334 0 -578 -707z"/>
</g>
</svg>
